<svg version="1.1" id="Layer_1" xmlns="http://www.w3.org/2000/svg" xmlns:xlink="http://www.w3.org/1999/xlink" x="0px" y="0px"
	 width="100%" viewBox="0 0 175 175" enable-background="new 0 0 175 175" xml:space="preserve">
<path fill="#000000" opacity="1.000000" stroke="none" 
	d="
M1.000000,61.000000 
	C1.000000,40.666672 1.000000,20.833344 1.000000,1.000011 
	C59.333313,1.000007 117.666626,1.000007 175.999954,1.000004 
	C175.999969,59.333302 175.999969,117.666603 175.999985,175.999939 
	C117.666710,175.999954 59.333427,175.999954 1.000070,175.999969 
	C1.000000,137.833328 1.000000,99.666664 1.000000,61.000000 
M42.043224,48.623924 
	C42.682663,49.458275 43.322102,50.292625 43.994133,51.766029 
	C44.380783,52.495121 44.767433,53.224213 45.174911,54.627167 
	C46.426674,56.138191 47.678436,57.649216 49.066757,59.604546 
	C49.247391,59.885445 49.503796,60.043377 50.147224,60.683128 
	C51.439754,61.512516 52.732285,62.341904 54.026546,63.950069 
	C53.390991,67.963371 52.755436,71.976677 51.965092,76.806023 
	C51.928627,78.182236 51.892166,79.558441 51.260487,81.220924 
	C51.458668,82.170197 51.656845,83.119469 51.938622,84.892975 
	C52.004978,86.269005 52.071335,87.645027 52.004021,89.735458 
	C52.318939,90.558189 52.633858,91.380928 52.942787,92.636452 
	C52.942787,92.636452 53.119453,93.031586 53.100441,93.568680 
	C53.388996,93.770248 53.677551,93.971817 53.944946,94.870392 
	C56.008678,96.511398 58.072411,98.152405 60.721188,100.143005 
	C62.141766,100.763847 63.562347,101.384682 65.304924,102.665016 
	C68.473663,103.814064 71.642403,104.963112 74.835083,106.457504 
	C74.835083,106.457504 74.845634,106.801453 74.418182,106.945389 
	C74.418182,106.945389 73.995094,107.101685 73.245201,106.969566 
	C72.490936,107.029503 71.736664,107.089439 70.168457,107.031296 
	C62.404736,107.659958 56.402279,111.723938 50.182255,116.997505 
	C46.369507,117.996147 42.598747,119.226440 38.732025,119.927261 
	C34.982460,120.606857 31.381329,121.055878 30.996595,126.719841 
	C31.036341,131.418121 35.041771,132.810455 38.251781,135.776993 
	C44.326004,140.010620 51.754757,138.860168 58.276928,133.294067 
	C60.472626,131.420227 63.402977,130.407196 66.003784,129.657471 
	C65.965164,130.092316 65.926552,130.527176 65.244980,131.263306 
	C65.453323,132.528046 65.661667,133.792786 65.985611,135.823730 
	C66.971710,138.280060 67.957809,140.736389 69.052406,143.636215 
	C69.231636,143.899826 69.474716,144.074677 70.093468,144.797348 
	C73.505424,146.864456 76.917381,148.931564 80.100487,151.641861 
	C79.387329,152.744537 78.674164,153.847214 77.296715,155.213470 
	C73.207008,156.807800 69.203201,158.695709 65.006325,159.923828 
	C59.481895,161.540405 53.768295,162.506516 48.228500,164.078247 
	C47.206779,164.368134 46.624317,166.206238 45.839111,167.329758 
	C46.982365,167.877243 48.084930,168.546783 49.278114,168.944427 
	C51.210785,169.588501 53.180939,170.160599 55.174641,170.572433 
	C59.091122,171.381500 63.034679,172.059494 67.777489,172.874344 
	C72.669762,171.824585 77.667419,171.101822 82.405861,169.574753 
	C84.493889,168.901855 87.727417,165.365433 87.611992,165.208389 
	C84.421204,160.867416 85.438919,154.483170 81.551537,150.830719 
	C87.013397,150.245453 92.475266,149.660172 98.215851,149.743759 
	C98.530205,150.885269 98.844559,152.026794 99.083755,153.924286 
	C98.378609,155.708984 97.589783,157.465927 96.986839,159.284500 
	C95.934868,162.457458 94.612335,165.610336 94.119766,168.879593 
	C93.624161,172.168991 95.241028,174.115540 99.050056,173.793304 
	C108.293526,173.011368 117.553467,172.425064 126.804840,171.734131 
	C127.721619,171.665665 128.625137,171.419678 130.036499,171.165863 
	C127.214386,164.975723 121.605843,163.304764 116.410088,162.176392 
	C109.132629,160.595947 105.596428,156.718994 104.997726,150.299942 
	C104.975578,149.201752 104.953430,148.103561 105.589333,146.984161 
	C106.400703,146.354294 107.212067,145.724411 108.761475,145.016937 
	C110.193413,143.021149 111.625351,141.025360 113.052399,139.026932 
	C113.052399,139.026932 113.072655,139.025497 113.570816,139.088287 
	C114.096077,139.730103 114.621346,140.371933 115.315964,141.741943 
	C119.737350,143.598511 125.773140,141.980194 129.769760,137.720840 
	C130.668610,136.207901 131.512375,134.658844 132.476593,133.188766 
	C135.370880,128.776031 134.349655,126.251686 129.622375,123.678825 
	C127.660385,122.611008 125.501411,120.119217 125.272804,118.069664 
	C124.926994,114.969414 123.316093,114.386353 121.039268,113.069397 
	C120.425613,112.048119 120.013885,110.383659 119.163414,110.116661 
	C115.442032,108.948288 111.566628,108.278145 107.813576,107.196564 
	C107.058861,106.979065 106.593559,105.757309 106.740120,104.990982 
	C108.501602,104.355667 110.263092,103.720352 112.699707,103.017296 
	C113.808990,102.375450 114.918274,101.733597 116.712463,101.023216 
	C117.489594,100.736435 118.266724,100.449654 119.722275,99.992516 
	C120.827385,98.696922 121.932495,97.401337 123.538338,95.997192 
	C123.700890,95.944824 123.863449,95.892456 124.643394,95.980370 
	C125.051102,95.656113 125.458817,95.331863 126.025543,94.376831 
	C126.072403,93.946495 126.119263,93.516159 126.815697,92.706055 
	C127.155075,90.800995 127.494453,88.895927 127.973358,86.258720 
	C128.013245,83.829948 128.053131,81.401169 127.991997,78.163551 
	C127.661644,76.442123 127.331284,74.720695 126.966286,72.167816 
	C126.971420,69.147095 126.976555,66.126373 127.620613,62.841530 
	C129.481628,60.583244 131.342636,58.324959 133.794052,55.690979 
	C137.397598,50.667759 137.565277,44.815178 137.951462,38.173119 
	C137.313980,35.087006 136.676483,32.000893 135.944107,28.433798 
	C135.763336,28.121824 135.492737,27.960625 135.009491,27.252298 
	C133.373352,25.135929 131.737228,23.019560 129.834198,20.274437 
	C124.039780,16.185608 118.683762,11.104859 112.324409,8.294271 
	C106.283203,5.624286 99.159767,5.471568 92.570229,3.959148 
	C79.634941,0.990266 67.887428,3.770733 56.249249,10.989601 
	C47.328663,17.450438 40.301270,25.083691 39.991161,37.849743 
	C40.644218,40.916988 41.297279,43.984238 42.034660,47.516087 
	C42.034660,47.516087 42.192150,47.961254 42.043224,48.623924 
z"/>
<path fill="#439FAC" opacity="1.000000" stroke="none" 
	d="
M49.835968,60.078350 
	C49.503796,60.043377 49.247391,59.885445 49.024952,58.955025 
	C48.516293,54.089909 50.568626,52.845688 54.563766,52.921444 
	C59.056644,53.006638 63.759823,53.183292 68.022682,52.030380 
	C78.942245,49.077118 89.630394,45.278519 100.495468,42.107052 
	C103.667877,41.181042 109.367668,39.916016 110.040260,41.067036 
	C112.289787,44.916744 115.516426,43.119667 118.127853,44.133247 
	C123.218483,46.109074 130.715393,43.088066 132.921967,51.250618 
	C132.202133,52.013290 131.620041,52.515751 130.768280,52.795547 
	C126.103142,47.003479 119.895020,48.013969 113.615250,47.836746 
	C111.463280,47.311668 109.660248,46.967796 107.937904,46.343681 
	C108.385078,45.158306 108.751556,44.253174 109.332863,42.817463 
	C106.434662,44.091309 104.230782,45.059982 101.642242,46.031593 
	C95.436050,48.783443 88.145401,48.512859 83.546883,53.775402 
	C83.719063,54.251484 83.891243,54.727570 84.063423,55.203651 
	C86.698021,54.474129 89.332626,53.744602 92.264084,52.972889 
	C93.048080,52.623886 93.535217,52.317074 94.009079,52.004250 
	C93.995819,51.998241 94.002312,52.026764 94.360550,52.035080 
	C95.195480,52.077526 95.672180,52.111660 96.227715,52.483521 
	C97.770264,52.963596 99.278389,53.403584 100.689430,53.193008 
	C105.088371,52.536530 109.450569,51.633820 113.912094,50.895348 
	C113.997177,50.964111 114.165581,51.103794 114.066788,51.459499 
	C113.074554,56.951408 108.445496,56.033642 105.245506,56.731171 
	C98.845306,58.126274 92.307358,59.295368 85.781433,59.601440 
	C78.221046,59.956024 70.611839,59.117939 63.025101,59.145699 
	C60.436356,59.155170 57.468842,59.818428 57.791183,63.743332 
	C56.356567,63.214134 55.231071,62.706486 53.927814,61.870552 
	C52.445362,61.054295 51.140663,60.566322 49.835968,60.078350 
z"/>
<path fill="#4DAEBC" opacity="1.000000" stroke="none" 
	d="
M133.059723,50.990406 
	C130.715393,43.088066 123.218483,46.109074 118.127853,44.133247 
	C115.516426,43.119667 112.289787,44.916744 110.040260,41.067036 
	C109.367668,39.916016 103.667877,41.181042 100.495468,42.107052 
	C89.630394,45.278519 78.942245,49.077118 68.022682,52.030380 
	C63.759823,53.183292 59.056644,53.006638 54.563766,52.921444 
	C50.568626,52.845688 48.516293,54.089909 48.956673,58.732872 
	C47.678436,57.649216 46.426674,56.138191 45.383186,54.021492 
	C45.073738,51.934715 44.556019,50.453613 44.030487,48.643200 
	C44.029217,47.874317 44.035759,47.434753 44.390282,46.839600 
	C47.897224,46.924438 51.067837,47.466194 54.212799,47.344624 
	C61.505074,47.062740 68.787422,46.493687 76.067566,45.956646 
	C77.359642,45.861332 78.632019,45.395119 79.895828,45.037731 
	C86.163368,43.265362 92.499794,42.267075 98.273994,38.412415 
	C103.874123,34.673954 110.677254,32.737556 116.979218,30.379644 
	C117.020462,31.490377 117.034538,32.231216 116.895737,33.306572 
	C116.044571,37.842594 120.068146,40.638424 125.393066,39.711929 
	C128.138977,39.234158 131.046646,37.497005 133.221375,41.078827 
	C135.298813,44.500446 135.937210,47.730030 133.059723,50.990406 
z"/>
<path fill="#6EE2E8" opacity="1.000000" stroke="none" 
	d="
M104.862495,151.115570 
	C105.596428,156.718994 109.132629,160.595947 116.410088,162.176392 
	C121.605843,163.304764 127.214386,164.975723 130.036499,171.165863 
	C128.625137,171.419678 127.721619,171.665665 126.804840,171.734131 
	C117.553467,172.425064 108.293526,173.011368 99.050056,173.793304 
	C95.241028,174.115540 93.624161,172.168991 94.119766,168.879593 
	C94.612335,165.610336 95.934868,162.457458 96.986839,159.284500 
	C97.589783,157.465927 98.378609,155.708984 99.476852,153.513412 
	C101.534134,152.440216 103.198311,151.777893 104.862495,151.115570 
z"/>
<path fill="#C7CDCC" opacity="1.000000" stroke="none" 
	d="
M65.870018,135.057526 
	C65.661667,133.792786 65.453323,132.528046 65.990189,131.121918 
	C68.356651,131.213089 70.023872,131.802185 71.589119,131.600357 
	C74.421394,131.235184 77.192818,130.398087 79.989655,129.758026 
	C79.279816,127.594902 78.289062,125.478081 77.923195,123.258270 
	C77.309456,119.534439 73.708290,115.691010 78.045288,112.345718 
	C78.677757,113.470924 79.304741,114.254791 79.946213,115.401993 
	C80.631927,116.854889 81.303139,117.944435 82.042557,119.341522 
	C82.757507,120.080139 83.404251,120.511215 84.447739,120.945694 
	C86.564453,120.634346 88.284424,120.319580 90.344360,119.955795 
	C92.121529,118.270920 93.558746,116.635063 95.348953,115.056534 
	C96.222084,116.554237 97.306862,118.066315 97.135086,119.418800 
	C96.849907,121.664116 95.475479,123.759857 95.100090,126.008774 
	C94.833405,127.606476 94.996529,129.618240 95.781693,130.973770 
	C97.167480,133.366211 106.243347,134.284821 108.578056,132.688232 
	C109.608360,131.983673 110.817017,131.539917 111.959991,131.313019 
	C111.988754,132.095566 112.002228,132.542862 111.789970,133.253601 
	C108.331955,136.278534 104.855782,136.825806 100.528397,136.180832 
	C93.126678,135.077682 85.588409,134.765579 78.093681,134.461700 
	C74.033852,134.297104 69.945503,134.835983 65.870018,135.057526 
z"/>
<path fill="#77ECF0" opacity="1.000000" stroke="none" 
	d="
M66.967041,172.791718 
	C63.034679,172.059494 59.091122,171.381500 55.174641,170.572433 
	C53.180939,170.160599 51.210785,169.588501 49.278114,168.944427 
	C48.084930,168.546783 46.982365,167.877243 45.839111,167.329758 
	C46.624317,166.206238 47.206779,164.368134 48.228500,164.078247 
	C53.768295,162.506516 59.481895,161.540405 65.006325,159.923828 
	C69.203201,158.695709 73.207008,156.807800 77.868324,155.278625 
	C81.660095,158.643173 79.438690,161.497818 77.179169,163.632019 
	C74.256302,166.392746 70.684837,168.460114 67.469467,170.926178 
	C67.063721,171.237366 67.123138,172.155045 66.967041,172.791718 
z"/>
<path fill="#7DF3F4" opacity="1.000000" stroke="none" 
	d="
M56.948841,10.886807 
	C67.887428,3.770733 79.634941,0.990266 92.570229,3.959148 
	C99.159767,5.471568 106.283203,5.624286 112.324409,8.294271 
	C118.683762,11.104859 124.039780,16.185608 129.926987,20.628281 
	C130.019775,20.982124 129.938660,21.061281 129.573807,21.040558 
	C126.144684,19.676865 123.080421,18.333895 119.957893,16.643059 
	C117.364731,14.624765 115.036743,12.178535 112.254250,11.436420 
	C105.261612,9.571423 97.969749,6.975355 90.969299,7.413239 
	C79.567520,8.126431 68.302345,11.023451 56.978333,12.646761 
	C56.967709,11.825356 56.958275,11.356081 56.948841,10.886807 
z"/>
<path fill="#D4DBDB" opacity="1.000000" stroke="none" 
	d="
M126.981689,63.105656 
	C126.976555,66.126373 126.971420,69.147095 126.668427,72.720901 
	C118.732491,78.983215 110.332428,83.034531 100.956772,84.729813 
	C100.960213,84.504005 100.967110,84.051300 101.185570,83.909325 
	C101.600296,83.484619 101.796562,83.201889 102.165024,82.625298 
	C103.221764,80.552048 104.106323,78.772667 105.375580,76.997238 
	C109.243927,77.912033 111.551003,77.388931 113.514565,73.597893 
	C115.213425,70.317940 115.946190,67.888718 113.950630,64.650856 
	C113.163887,63.374340 113.304855,61.526051 113.270721,59.935368 
	C113.969254,59.752720 114.420464,59.572826 115.266632,59.325806 
	C117.745216,59.521328 119.828842,59.783974 122.132324,60.311413 
	C123.895348,61.419353 125.438522,62.262505 126.981689,63.105656 
z"/>
<path fill="#CED4D3" opacity="1.000000" stroke="none" 
	d="
M78.039803,112.004379 
	C73.708290,115.691010 77.309456,119.534439 77.923195,123.258270 
	C78.289062,125.478081 79.279816,127.594902 79.989655,129.758026 
	C77.192818,130.398087 74.421394,131.235184 71.589119,131.600357 
	C70.023872,131.802185 68.356651,131.213089 66.311661,130.971283 
	C65.926552,130.527176 65.965164,130.092316 66.244675,129.051636 
	C66.980949,124.597939 67.476326,120.750076 67.987183,116.539246 
	C68.666000,114.107834 69.329330,112.039391 70.227539,109.937500 
	C70.462425,109.904068 70.935837,109.871902 71.147446,110.106781 
	C72.237740,109.261673 73.116417,108.181679 73.995094,107.101685 
	C73.995094,107.101685 74.418182,106.945389 75.087967,106.831139 
	C78.177330,106.905106 80.596924,107.093315 82.953644,107.600868 
	C81.273788,109.281601 79.656792,110.642990 78.039803,112.004379 
z"/>
<path fill="#A6ABAA" opacity="1.000000" stroke="none" 
	d="
M113.057281,139.029572 
	C111.625351,141.025360 110.193413,143.021149 108.124619,144.767456 
	C94.919052,144.398880 82.350357,144.279800 69.781654,144.160736 
	C69.474716,144.074677 69.231636,143.899826 69.033066,142.998611 
	C69.089584,140.787811 69.165436,139.214630 69.224052,137.998917 
	C73.847549,138.442398 77.866249,138.999084 81.901131,139.167053 
	C85.990677,139.337265 90.096588,139.144211 94.194656,139.072083 
	C98.889023,138.989456 103.582260,138.833405 108.276802,138.775772 
	C109.869019,138.756226 111.463715,138.939163 113.057281,139.029572 
z"/>
<path fill="#BEA846" opacity="1.000000" stroke="none" 
	d="
M64.982925,102.005524 
	C63.562347,101.384682 62.141766,100.763847 60.420895,99.651939 
	C60.190060,98.745361 60.259518,98.329849 60.696205,97.933968 
	C63.716358,96.983925 66.369278,96.014252 69.366165,95.008842 
	C70.166328,94.906044 70.622528,94.838982 71.303345,95.097946 
	C74.026291,95.293304 76.524628,95.162651 79.346680,95.045013 
	C80.102379,95.060631 80.534355,95.063232 81.230957,95.324631 
	C87.280533,97.403191 93.110374,99.927208 98.589890,94.421661 
	C99.361473,94.424103 99.976601,94.508293 100.616196,94.724915 
	C100.640663,94.857346 100.798759,95.075439 100.840836,95.406677 
	C100.970047,96.175125 101.057175,96.612350 101.103119,97.271889 
	C101.061920,97.494209 101.107315,97.945107 101.039955,98.198997 
	C100.940430,98.625015 100.908264,98.797150 100.554291,99.045898 
	C99.707176,100.049934 99.181870,100.977356 98.363693,101.888184 
	C97.679451,101.857658 97.288078,101.843727 96.618469,101.596176 
	C91.249985,101.558517 86.161217,101.827728 81.069084,101.930359 
	C75.708702,102.038376 70.345116,101.987160 64.982925,102.005524 
z"/>
<path fill="#B5BAB9" opacity="1.000000" stroke="none" 
	d="
M112.015694,132.990143 
	C112.002228,132.542862 111.988754,132.095566 111.965851,130.911163 
	C111.443237,127.762215 111.186790,125.252098 110.315872,122.977211 
	C109.831589,121.712250 108.327271,119.943550 107.275246,119.938461 
	C101.400421,119.910034 104.726471,114.218727 102.243889,112.237946 
	C102.890938,111.798767 103.537979,111.359589 104.405815,111.157387 
	C106.416397,112.221703 108.206184,113.049034 110.112854,114.157326 
	C110.809258,114.972778 111.388771,115.507271 111.981743,116.405457 
	C114.428299,121.365486 116.378586,126.397194 122.102020,128.433243 
	C121.550171,137.853745 121.550171,137.853745 129.086807,138.049683 
	C125.773140,141.980194 119.737350,143.598511 115.614182,141.371262 
	C119.196587,141.068909 119.361572,139.212723 118.408417,136.814133 
	C117.446365,134.393188 117.096527,130.960678 112.731613,133.007355 
	C112.492958,133.002228 112.015694,132.990143 112.015694,132.990143 
z"/>
<path fill="#EDF2F2" opacity="1.000000" stroke="none" 
	d="
M70.935837,109.871902 
	C70.935837,109.871902 70.462425,109.904068 69.862762,109.954544 
	C63.973431,114.835686 57.690895,118.971649 53.683258,124.699333 
	C49.941517,130.046997 46.048462,133.089737 39.452187,133.284546 
	C38.794991,133.288788 38.419395,133.283234 38.069389,132.976471 
	C39.388794,131.754913 40.682602,130.834579 41.999935,129.546432 
	C46.325829,126.040688 49.255295,121.905251 50.959515,116.879593 
	C56.402279,111.723938 62.404736,107.659958 70.580978,107.432129 
	C70.974289,108.512611 70.955063,109.192261 70.935837,109.871902 
z"/>
<path fill="#EEF1F1" opacity="1.000000" stroke="none" 
	d="
M129.428284,137.885254 
	C121.550171,137.853745 121.550171,137.853745 122.338326,128.161224 
	C122.676109,125.997467 122.753105,124.534531 122.880310,122.669556 
	C122.933311,121.193542 122.936111,120.119591 122.793312,118.724609 
	C122.115158,116.886528 121.582611,115.369469 121.050056,113.852409 
	C123.316093,114.386353 124.926994,114.969414 125.272804,118.069664 
	C125.501411,120.119217 127.660385,122.611008 129.622375,123.678825 
	C134.349655,126.251686 135.370880,128.776031 132.476593,133.188766 
	C131.512375,134.658844 130.668610,136.207901 129.428284,137.885254 
z"/>
<path fill="#BEC4C4" opacity="1.000000" stroke="none" 
	d="
M111.789970,133.253601 
	C112.015694,132.990143 112.492958,133.002228 112.739265,133.507050 
	C113.014603,135.683075 113.043625,137.354279 113.072655,139.025497 
	C113.072655,139.025497 113.052399,139.026932 113.054840,139.028259 
	C111.463715,138.939163 109.869019,138.756226 108.276802,138.775772 
	C103.582260,138.833405 98.889023,138.989456 94.194656,139.072083 
	C90.096588,139.144211 85.990677,139.337265 81.901131,139.167053 
	C77.866249,138.999084 73.847549,138.442398 69.224052,137.998917 
	C69.165436,139.214630 69.089584,140.787811 68.978821,142.776855 
	C67.957809,140.736389 66.971710,138.280060 65.927811,135.440643 
	C69.945503,134.835983 74.033852,134.297104 78.093681,134.461700 
	C85.588409,134.765579 93.126678,135.077682 100.528397,136.180832 
	C104.855782,136.825806 108.331955,136.278534 111.789970,133.253601 
z"/>
<path fill="#AEB3B3" opacity="1.000000" stroke="none" 
	d="
M38.043800,133.277679 
	C38.419395,133.283234 38.794991,133.288788 39.641594,133.607300 
	C45.666008,136.799042 50.012486,133.872177 53.856159,130.547012 
	C58.797771,126.272049 63.287384,121.474594 67.971703,116.902214 
	C67.476326,120.750076 66.980949,124.597939 66.241562,128.723267 
	C63.402977,130.407196 60.472626,131.420227 58.276928,133.294067 
	C51.754757,138.860168 44.326004,140.010620 38.130486,135.131409 
	C38.020725,134.083099 38.032265,133.680389 38.043800,133.277679 
z"/>
<path fill="#CED3D0" opacity="1.000000" stroke="none" 
	d="
M100.953339,84.955627 
	C110.332428,83.034531 118.732491,78.983215 126.685745,73.136627 
	C127.331284,74.720695 127.661644,76.442123 127.681229,78.617493 
	C122.626366,81.194748 118.061920,84.141388 113.091171,85.226013 
	C107.313095,86.486794 102.335381,91.611115 95.443298,89.043175 
	C93.654205,88.059906 92.178024,87.132698 91.131958,86.135910 
	C94.692490,85.696098 97.822914,85.325867 100.953339,84.955627 
z"/>
<path fill="#65D4E0" opacity="1.000000" stroke="none" 
	d="
M67.372269,172.833038 
	C67.123138,172.155045 67.063721,171.237366 67.469467,170.926178 
	C70.684837,168.460114 74.256302,166.392746 77.179169,163.632019 
	C79.438690,161.497818 81.660095,158.643173 78.200470,155.146835 
	C78.674164,153.847214 79.387329,152.744537 80.324448,151.376694 
	C80.548401,151.111526 80.749672,150.969376 80.749672,150.969376 
	C85.438919,154.483170 84.421204,160.867416 87.611992,165.208389 
	C87.727417,165.365433 84.493889,168.901855 82.405861,169.574753 
	C77.667419,171.101822 72.669762,171.824585 67.372269,172.833038 
z"/>
<path fill="#7C8181" opacity="1.000000" stroke="none" 
	d="
M81.150604,150.900055 
	C80.749672,150.969376 80.548401,151.111526 80.438873,151.055115 
	C76.917381,148.931564 73.505424,146.864456 69.937561,144.479034 
	C82.350357,144.279800 94.919052,144.398880 107.755600,144.806244 
	C107.212067,145.724411 106.400703,146.354294 104.901672,147.043182 
	C102.121712,147.759766 100.029419,148.417343 97.937134,149.074905 
	C92.475266,149.660172 87.013397,150.245453 81.150604,150.900055 
z"/>
<path fill="#62C1D0" opacity="1.000000" stroke="none" 
	d="
M132.921967,51.250618 
	C135.937210,47.730030 135.298813,44.500446 133.221375,41.078827 
	C131.046646,37.497005 128.138977,39.234158 125.393066,39.711929 
	C120.068146,40.638424 116.044571,37.842594 117.282562,33.331009 
	C119.523964,33.605751 121.341599,34.902836 122.906647,34.648079 
	C128.677689,33.708683 133.744812,34.450970 137.826538,38.985191 
	C137.565277,44.815178 137.397598,50.667759 133.173737,55.996231 
	C131.668625,56.530193 130.783813,56.758904 129.963531,56.647171 
	C130.364700,55.210556 130.701324,54.114384 131.037964,53.018208 
	C131.620041,52.515751 132.202133,52.013290 132.921967,51.250618 
z"/>
<path fill="#F9FBFB" opacity="1.000000" stroke="none" 
	d="
M50.570885,116.938553 
	C49.255295,121.905251 46.325829,126.040688 41.609070,129.572510 
	C37.848892,128.635406 34.503098,127.304398 31.157307,125.973389 
	C31.381329,121.055878 34.982460,120.606857 38.732025,119.927261 
	C42.598747,119.226440 46.369507,117.996147 50.570885,116.938553 
z"/>
<path fill="#C4CAC7" opacity="1.000000" stroke="none" 
	d="
M95.756218,89.099236 
	C102.335381,91.611115 107.313095,86.486794 113.091171,85.226013 
	C118.061920,84.141388 122.626366,81.194748 127.731735,79.021912 
	C128.053131,81.401169 128.013245,83.829948 127.523834,86.557465 
	C122.020081,85.505745 105.360023,90.372589 100.591721,94.592484 
	C99.976601,94.508293 99.361473,94.424103 98.503906,94.110626 
	C97.426376,92.287308 96.591301,90.693268 95.756218,89.099236 
z"/>
<path fill="#DDE2E2" opacity="1.000000" stroke="none" 
	d="
M121.044662,113.460907 
	C121.582611,115.369469 122.115158,116.886528 122.433228,118.699905 
	C119.185493,117.196312 116.207222,115.290230 113.080383,113.671043 
	C112.297592,113.265701 111.036980,113.783073 109.995972,113.876366 
	C108.206184,113.049034 106.416397,112.221703 104.563911,110.923737 
	C103.310829,109.224960 102.120445,107.996826 101.212357,106.662186 
	C102.352760,106.080673 103.210869,105.605675 104.391045,105.129013 
	C105.140350,105.084435 105.567589,105.041504 105.994827,104.998581 
	C106.593559,105.757309 107.058861,106.979065 107.813576,107.196564 
	C111.566628,108.278145 115.442032,108.948288 119.163414,110.116661 
	C120.013885,110.383659 120.425613,112.048119 121.044662,113.460907 
z"/>
<path fill="#CDD2CC" opacity="1.000000" stroke="none" 
	d="
M51.855701,80.934654 
	C51.892166,79.558441 51.928627,78.182236 52.407227,76.405716 
	C54.552223,74.675484 56.255085,73.345558 57.963062,72.465012 
	C57.983490,74.878502 58.046307,76.843658 58.002754,78.806465 
	C57.940521,81.610825 59.056629,83.190498 62.429573,82.986984 
	C64.660927,83.756897 66.524391,84.504112 68.279480,85.575790 
	C66.394287,88.231766 64.617470,90.563286 62.620171,92.880394 
	C62.399689,92.865982 61.967278,92.774826 61.973030,92.369019 
	C61.188076,90.021172 60.895153,87.488571 59.475880,86.292252 
	C57.841331,84.914505 55.211548,84.717499 52.998737,83.660095 
	C52.607555,82.519882 52.231628,81.727264 51.855701,80.934654 
z"/>
<path fill="#6BCFDE" opacity="1.000000" stroke="none" 
	d="
M137.889008,38.579155 
	C133.744812,34.450970 128.677689,33.708683 122.906647,34.648079 
	C121.341599,34.902836 119.523964,33.605751 117.435440,32.996490 
	C117.034538,32.231216 117.020462,31.490377 117.028778,30.377020 
	C117.051186,30.004499 117.148323,29.989969 117.558258,29.990929 
	C122.979706,29.990929 127.991211,29.989969 133.342896,29.985853 
	C134.468384,29.626726 135.253677,29.270754 136.038986,28.914780 
	C136.676483,32.000893 137.313980,35.087006 137.889008,38.579155 
z"/>
<path fill="#BCC1BF" opacity="1.000000" stroke="none" 
	d="
M100.616196,94.724915 
	C105.360023,90.372589 122.020081,85.505745 127.454063,86.923538 
	C127.494453,88.895927 127.155075,90.800995 126.204964,92.650925 
	C123.714828,88.596443 120.581253,89.966400 117.596161,90.734810 
	C111.995682,92.176453 106.397751,93.628006 100.798759,95.075439 
	C100.798759,95.075439 100.640663,94.857346 100.616196,94.724915 
z"/>
<path fill="#877838" opacity="1.000000" stroke="none" 
	d="
M65.143921,102.335274 
	C70.345116,101.987160 75.708702,102.038376 81.069084,101.930359 
	C86.161217,101.827728 91.249985,101.558517 96.345367,101.782188 
	C95.238274,102.834702 94.126038,103.467598 92.680023,104.080894 
	C91.560890,104.376221 90.775551,104.691139 89.996323,105.005600 
	C90.002441,105.005142 90.010384,104.995911 89.567551,104.988922 
	C86.785225,105.031052 84.445732,105.080170 81.675087,105.104904 
	C79.099670,105.424408 76.955406,105.768288 74.811134,106.112167 
	C71.642403,104.963112 68.473663,103.814064 65.143921,102.335274 
z"/>
<path fill="#B3B8B6" opacity="1.000000" stroke="none" 
	d="
M100.840836,95.406677 
	C106.397751,93.628006 111.995682,92.176453 117.596161,90.734810 
	C120.581253,89.966400 123.714828,88.596443 125.880173,92.840813 
	C126.119263,93.516159 126.072403,93.946495 125.683434,94.714005 
	C124.902885,95.314140 124.464455,95.577110 124.026016,95.840080 
	C123.863449,95.892456 123.700890,95.944824 123.181091,95.681404 
	C121.512062,94.913483 120.125328,93.928284 118.901314,94.100388 
	C113.240646,94.896339 107.625198,96.013985 101.780968,97.017685 
	C101.568382,97.019005 101.144310,97.049568 101.144310,97.049568 
	C101.057175,96.612350 100.970047,96.175125 100.840836,95.406677 
z"/>
<path fill="#D8E1E3" opacity="1.000000" stroke="none" 
	d="
M57.957939,72.015633 
	C56.255085,73.345558 54.552223,74.675484 52.484619,75.997688 
	C52.755436,71.976677 53.390991,67.963371 54.095306,63.321144 
	C54.164062,62.692223 54.105572,62.198837 54.105572,62.198837 
	C55.231071,62.706486 56.356567,63.214134 57.963005,63.931480 
	C58.634323,64.418983 58.824696,64.696793 59.011215,65.393181 
	C58.657551,67.879715 58.307747,69.947678 57.957939,72.015633 
z"/>
<path fill="#AEB3B3" opacity="1.000000" stroke="none" 
	d="
M101.993553,97.016365 
	C107.625198,96.013985 113.240646,94.896339 118.901314,94.100388 
	C120.125328,93.928284 121.512062,94.913483 122.930725,95.735687 
	C121.932495,97.401337 120.827385,98.696922 119.372055,99.685921 
	C118.520752,98.316376 118.019669,97.253433 117.518578,96.190491 
	C116.345963,96.808823 115.173340,97.427147 113.654060,98.055290 
	C111.886314,98.683472 110.465233,99.301834 108.939850,99.585999 
	C106.182404,99.157616 103.529251,99.063446 100.876099,98.969284 
	C100.908264,98.797150 100.940430,98.625015 101.224434,98.084549 
	C101.700760,97.521431 101.873184,97.288147 101.993553,97.016365 
z"/>
<path fill="#B5ECF1" opacity="1.000000" stroke="none" 
	d="
M56.599045,10.938204 
	C56.958275,11.356081 56.967709,11.825356 56.688072,12.804514 
	C53.580524,16.214815 50.762047,19.115232 47.729023,22.270077 
	C46.037933,25.690086 44.561394,28.855669 43.058128,32.355480 
	C43.050373,33.136063 43.069351,33.582420 43.043446,34.367149 
	C42.922577,35.378307 42.846588,36.051086 42.445454,36.777557 
	C41.465195,36.880257 40.810081,36.929264 40.154972,36.978271 
	C40.301270,25.083691 47.328663,17.450438 56.599045,10.938204 
z"/>
<path fill="#949894" opacity="1.000000" stroke="none" 
	d="
M109.044151,99.920204 
	C110.465233,99.301834 111.886314,98.683472 113.852943,98.299225 
	C114.941513,99.386139 115.484535,100.238945 116.027557,101.091743 
	C114.918274,101.733597 113.808990,102.375450 112.105347,102.777412 
	C109.010025,103.011124 106.509064,103.484726 103.568489,103.964844 
	C99.767433,104.297905 96.406006,104.624458 93.038345,104.738327 
	C93.032112,104.525642 93.013802,104.100487 93.013802,104.100487 
	C94.126038,103.467598 95.238274,102.834702 96.623611,102.015793 
	C97.288078,101.843727 97.679451,101.857658 98.784599,101.871620 
	C102.680305,101.221169 105.862228,100.570686 109.044151,99.920204 
z"/>
<path fill="#6B6D68" opacity="1.000000" stroke="none" 
	d="
M93.044571,104.951012 
	C96.406006,104.624458 99.767433,104.297905 103.575706,104.258545 
	C104.038025,104.740715 104.053497,104.935692 104.068977,105.130676 
	C103.210869,105.605675 102.352760,106.080673 100.772415,106.608368 
	C97.694809,106.864159 95.339432,107.067261 92.534760,107.209213 
	C89.062477,107.192551 86.039497,107.237038 83.016510,107.281525 
	C80.596924,107.093315 78.177330,106.905106 75.301689,106.759171 
	C74.845634,106.801453 74.835083,106.457504 74.823105,106.284836 
	C76.955406,105.768288 79.099670,105.424408 81.964584,105.331917 
	C85.126938,105.387505 87.568665,105.191711 90.010384,104.995911 
	C90.010384,104.995911 90.002441,105.005142 90.377953,105.017380 
	C91.517166,105.003418 92.280869,104.977211 93.044571,104.951012 
z"/>
<path fill="#C0C6C5" opacity="1.000000" stroke="none" 
	d="
M53.013996,84.007690 
	C55.211548,84.717499 57.841331,84.914505 59.475880,86.292252 
	C60.895153,87.488571 61.188076,90.021172 61.763771,92.467270 
	C61.548756,92.971321 61.095665,93.058502 60.745415,92.995636 
	C57.942291,91.621147 55.489422,90.309532 52.811646,88.996201 
	C52.586739,88.994476 52.137691,89.021057 52.137688,89.021057 
	C52.071335,87.645027 52.004978,86.269005 52.186619,84.466644 
	C52.627739,84.029442 52.820866,84.018570 53.013996,84.007690 
z"/>
<path fill="#B3B8B6" opacity="1.000000" stroke="none" 
	d="
M53.036560,88.997917 
	C55.489422,90.309532 57.942291,91.621147 60.720757,93.352097 
	C60.807224,95.152397 60.568100,96.533363 60.328976,97.914337 
	C60.259518,98.329849 60.190060,98.745361 60.128372,99.477142 
	C58.072411,98.152405 56.008678,96.511398 53.840942,94.306137 
	C53.656746,93.395866 53.450920,93.159096 53.119453,93.031586 
	C53.119453,93.031586 52.942787,92.636452 52.988045,92.020737 
	C53.034389,90.602661 53.035473,89.800285 53.036560,88.997917 
z"/>
<path fill="#A6ABAA" opacity="1.000000" stroke="none" 
	d="
M113.321732,139.056885 
	C113.043625,137.354279 113.014603,135.683075 112.977921,133.512177 
	C117.096527,130.960678 117.446365,134.393188 118.408417,136.814133 
	C119.361572,139.212723 119.196587,141.068909 115.529510,141.007172 
	C114.621346,140.371933 114.096077,139.730103 113.321732,139.056885 
z"/>
<path fill="#D6DDDD" opacity="1.000000" stroke="none" 
	d="
M31.076950,126.346619 
	C34.503098,127.304398 37.848892,128.635406 41.585548,129.940338 
	C40.682602,130.834579 39.388794,131.754913 38.069389,132.976456 
	C38.032265,133.680389 38.020725,134.083099 37.993504,134.790039 
	C35.041771,132.810455 31.036341,131.418121 31.076950,126.346619 
z"/>
<path fill="#68B0BF" opacity="1.000000" stroke="none" 
	d="
M129.899017,56.987614 
	C130.783813,56.758904 131.668625,56.530193 132.878540,56.184078 
	C131.342636,58.324959 129.481628,60.583244 127.301147,62.973595 
	C125.438522,62.262505 123.895348,61.419353 122.375549,60.217964 
	C122.567619,59.819561 122.736320,59.779400 123.269318,59.808029 
	C125.722076,58.913754 127.810547,57.950684 129.899017,56.987614 
z"/>
<path fill="#578790" opacity="1.000000" stroke="none" 
	d="
M98.076492,149.409332 
	C100.029419,148.417343 102.121712,147.759766 104.572647,147.053772 
	C104.953430,148.103561 104.975578,149.201752 104.930115,150.707764 
	C103.198311,151.777893 101.534134,152.440216 99.514435,153.135422 
	C98.844559,152.026794 98.530205,150.885269 98.076492,149.409332 
z"/>
<path fill="#72DDEC" opacity="1.000000" stroke="none" 
	d="
M40.073067,37.414009 
	C40.810081,36.929264 41.465195,36.880257 42.479820,37.153072 
	C42.606644,38.675785 42.373955,39.876671 42.125175,41.497757 
	C42.083801,43.601170 42.058514,45.284382 42.012451,46.988518 
	C41.991684,47.009441 41.950340,47.051483 41.950340,47.051483 
	C41.297279,43.984238 40.644218,40.916988 40.073067,37.414009 
z"/>
<path fill="#A3A8A3" opacity="1.000000" stroke="none" 
	d="
M116.370010,101.057480 
	C115.484535,100.238945 114.941513,99.386139 114.199608,98.289413 
	C115.173340,97.427147 116.345963,96.808823 117.518578,96.190491 
	C118.019669,97.253433 118.520752,98.316376 119.032845,99.771103 
	C118.266724,100.449654 117.489594,100.736435 116.370010,101.057480 
z"/>
<path fill="#7F8179" opacity="1.000000" stroke="none" 
	d="
M104.391045,105.129013 
	C104.053497,104.935692 104.038025,104.740715 104.015327,104.252029 
	C106.509064,103.484726 109.010025,103.011124 111.767776,102.811279 
	C110.263092,103.720352 108.501602,104.355667 106.367477,104.994781 
	C105.567589,105.041504 105.140350,105.084435 104.391045,105.129013 
z"/>
<path fill="#7DF3F4" opacity="1.000000" stroke="none" 
	d="
M130.060440,20.942657 
	C131.737228,23.019560 133.373352,25.135929 134.713364,27.616556 
	C133.940018,27.988756 133.462814,27.996698 132.865601,27.799648 
	C132.549530,27.338068 132.306595,27.138485 131.961807,26.645897 
	C131.250748,24.551016 130.594696,22.806150 129.938660,21.061283 
	C129.938660,21.061281 130.019775,20.982124 130.060440,20.942657 
z"/>
<path fill="#D6DDDD" opacity="1.000000" stroke="none" 
	d="
M71.147446,110.106781 
	C70.955063,109.192261 70.974289,108.512611 70.987953,107.491173 
	C71.736664,107.089439 72.490936,107.029503 73.620148,107.035629 
	C73.116417,108.181679 72.237740,109.261673 71.147446,110.106781 
z"/>
<path fill="#56BDCC" opacity="1.000000" stroke="none" 
	d="
M44.038300,48.972515 
	C44.556019,50.453613 45.073738,51.934715 45.372772,53.684559 
	C44.767433,53.224213 44.380783,52.495121 43.992737,51.087746 
	C44.006992,49.930481 44.022644,49.451496 44.038300,48.972515 
z"/>
<path fill="#4DAEBC" opacity="1.000000" stroke="none" 
	d="
M53.927814,61.870552 
	C54.105572,62.198837 54.164062,62.692223 54.094440,62.931755 
	C52.732285,62.341904 51.439754,61.512516 49.991596,60.380737 
	C51.140663,60.566322 52.445362,61.054295 53.927814,61.870552 
z"/>
<path fill="#65CBD9" opacity="1.000000" stroke="none" 
	d="
M44.030487,48.643200 
	C44.022644,49.451496 44.006992,49.930481 43.976440,50.768219 
	C43.322102,50.292625 42.682663,49.458275 42.286163,48.163052 
	C42.734726,47.501175 42.893238,47.268124 43.264053,47.001072 
	C43.696415,46.997807 43.869358,46.996494 44.042297,46.995186 
	C44.035759,47.434753 44.029217,47.874317 44.030487,48.643200 
z"/>
<path fill="#D8E1E3" opacity="1.000000" stroke="none" 
	d="
M52.998737,83.660095 
	C52.820866,84.018570 52.627739,84.029442 52.144821,84.054520 
	C51.656845,83.119469 51.458668,82.170197 51.558094,81.077789 
	C52.231628,81.727264 52.607555,82.519882 52.998737,83.660095 
z"/>
<path fill="#72E5F2" opacity="1.000000" stroke="none" 
	d="
M132.985596,28.004639 
	C133.462814,27.996698 133.940018,27.988756 134.774780,27.965508 
	C135.492737,27.960625 135.763336,28.121824 135.991547,28.674290 
	C135.253677,29.270754 134.468384,29.626726 133.341400,29.655231 
	C132.995026,28.886723 132.990311,28.445681 132.985596,28.004639 
z"/>
<path fill="#D8E1E3" opacity="1.000000" stroke="none" 
	d="
M52.811649,88.996201 
	C53.035473,89.800285 53.034389,90.602661 52.991043,91.804344 
	C52.633858,91.380928 52.318939,90.558189 52.070854,89.378258 
	C52.137691,89.021057 52.586739,88.994476 52.811649,88.996201 
z"/>
<path fill="#BCC1BF" opacity="1.000000" stroke="none" 
	d="
M124.334702,95.910225 
	C124.464455,95.577110 124.902885,95.314140 125.603928,95.029388 
	C125.458817,95.331863 125.051102,95.656113 124.334702,95.910225 
z"/>
<path fill="#D8E1E3" opacity="1.000000" stroke="none" 
	d="
M53.109947,93.300133 
	C53.450920,93.159096 53.656746,93.395866 53.851521,93.957642 
	C53.677551,93.971817 53.388996,93.770248 53.109947,93.300133 
z"/>
<path fill="#72DDEC" opacity="1.000000" stroke="none" 
	d="
M43.004639,47.003025 
	C42.893238,47.268124 42.734726,47.501175 42.360626,47.831718 
	C42.192150,47.961254 42.034660,47.516087 41.992500,47.283783 
	C41.950340,47.051483 41.991684,47.009441 42.255684,46.986839 
	C42.519688,46.964241 43.004639,47.003025 43.004639,47.003025 
z"/>
<path fill="#307D89" opacity="1.000000" stroke="none" 
	d="
M122.905029,59.739235 
	C122.736320,59.779400 122.567619,59.819561 122.155685,59.953175 
	C119.828842,59.783974 117.745216,59.521328 114.961189,59.235542 
	C113.840294,59.251629 113.419815,59.290852 112.631760,59.254459 
	C111.515938,59.198593 110.767693,59.218338 109.656128,59.153011 
	C107.861435,59.697998 106.430054,60.328056 104.983261,60.964516 
	C104.967850,60.970921 104.960884,61.003574 104.592972,61.064873 
	C101.814713,62.091057 99.404373,63.055935 96.721214,64.131683 
	C95.734276,64.540100 95.020164,64.837639 93.861206,65.099510 
	C90.559074,65.411476 87.701782,65.759102 84.419250,66.090469 
	C79.049751,66.428406 74.105499,66.782608 68.780663,67.098984 
	C66.918503,66.708130 65.436920,66.355110 63.818607,65.742882 
	C63.130791,65.389359 62.579708,65.295052 61.656174,65.130829 
	C60.527508,65.032158 59.771290,65.003380 59.015068,64.974602 
	C58.824696,64.696793 58.634323,64.418983 58.272125,63.953026 
	C57.468842,59.818428 60.436356,59.155170 63.025101,59.145699 
	C70.611839,59.117939 78.221046,59.956024 85.781433,59.601440 
	C92.307358,59.295368 98.845306,58.126274 105.245506,56.731171 
	C108.445496,56.033642 113.074554,56.951408 114.486877,51.428833 
	C116.150719,51.034958 117.399574,50.727283 118.419739,51.080364 
	C120.785835,51.899288 123.316048,52.714001 125.150597,54.271469 
	C125.614807,54.665577 123.717293,57.841564 122.905029,59.739235 
z"/>
<path fill="#3F94A1" opacity="1.000000" stroke="none" 
	d="
M123.269318,59.808029 
	C123.717293,57.841564 125.614807,54.665577 125.150597,54.271469 
	C123.316048,52.714001 120.785835,51.899288 118.419739,51.080364 
	C117.399574,50.727283 116.150719,51.034958 114.585670,51.073128 
	C114.165581,51.103794 113.997177,50.964111 113.949997,50.547230 
	C113.923271,49.426216 113.943726,48.722080 113.964180,48.017948 
	C119.895020,48.013969 126.103142,47.003479 130.768280,52.795547 
	C130.701324,54.114384 130.364700,55.210556 129.963531,56.647171 
	C127.810547,57.950684 125.722076,58.913754 123.269318,59.808029 
z"/>
<path fill="#6FD3E1" opacity="1.000000" stroke="none" 
	d="
M113.615250,47.836746 
	C113.943726,48.722080 113.923271,49.426216 113.864914,50.478462 
	C109.450569,51.633820 105.088371,52.536530 100.689430,53.193008 
	C99.278389,53.403584 97.770264,52.963596 96.530067,52.315216 
	C100.454788,50.080765 104.155998,48.352345 107.857208,46.623924 
	C109.660248,46.967796 111.463280,47.311668 113.615250,47.836746 
z"/>
<path fill="#3A939F" opacity="1.000000" stroke="none" 
	d="
M91.967224,53.015076 
	C89.332626,53.744602 86.698021,54.474129 84.063423,55.203651 
	C83.891243,54.727570 83.719063,54.251484 83.546883,53.775402 
	C88.145401,48.512859 95.436050,48.783443 101.467171,46.320801 
	C99.118614,48.413628 96.560463,50.220196 94.002312,52.026764 
	C94.002312,52.026764 93.995819,51.998241 93.709442,52.027828 
	C92.937790,52.376633 92.452507,52.695854 91.967224,53.015076 
z"/>
<path fill="#307D89" opacity="1.000000" stroke="none" 
	d="
M94.360550,52.035080 
	C96.560463,50.220196 99.118614,48.413628 101.851837,46.317856 
	C104.230782,45.059982 106.434662,44.091309 109.332863,42.817463 
	C108.751556,44.253174 108.385078,45.158306 107.937904,46.343681 
	C104.155998,48.352345 100.454788,50.080765 96.451225,51.977493 
	C95.672180,52.111660 95.195480,52.077526 94.360550,52.035080 
z"/>
<path fill="#307D89" opacity="1.000000" stroke="none" 
	d="
M92.264084,52.972885 
	C92.452507,52.695854 92.937790,52.376633 93.722710,52.033836 
	C93.535217,52.317074 93.048080,52.623886 92.264084,52.972885 
z"/>
<path fill="#56BDCC" opacity="1.000000" stroke="none" 
	d="
M43.264053,47.001072 
	C43.004639,47.003025 42.519688,46.964241 42.276455,46.965919 
	C42.058514,45.284382 42.083801,43.601170 42.480347,41.412804 
	C49.048481,41.583931 55.326572,41.855423 61.414108,43.076733 
	C65.573830,43.911274 69.375610,44.984867 73.394196,41.949669 
	C76.861183,40.949059 79.932533,39.955151 83.369751,38.949268 
	C85.153343,38.613457 86.571091,38.289619 88.234985,38.213943 
	C93.674011,37.199009 98.910797,36.578922 103.675140,33.403599 
	C107.581673,30.799992 112.517715,29.741104 117.005051,28.330830 
	C117.057907,29.106110 117.103111,29.548038 117.148323,29.989969 
	C117.148323,29.989969 117.051186,30.004499 117.001617,30.007124 
	C110.677254,32.737556 103.874123,34.673954 98.273994,38.412415 
	C92.499794,42.267075 86.163368,43.265362 79.895828,45.037731 
	C78.632019,45.395119 77.359642,45.861332 76.067566,45.956646 
	C68.787422,46.493687 61.505074,47.062740 54.212799,47.344624 
	C51.067837,47.466194 47.897224,46.924438 44.390282,46.839600 
	C43.869358,46.996494 43.696415,46.997807 43.264053,47.001072 
z"/>
<path fill="#CED4D3" opacity="1.000000" stroke="none" 
	d="
M92.984055,107.270355 
	C95.339432,107.067261 97.694809,106.864159 100.490128,106.714874 
	C102.120445,107.996826 103.310829,109.224960 104.343117,110.686752 
	C103.537979,111.359589 102.890938,111.798767 102.243889,112.237946 
	C104.726471,114.218727 101.400421,119.910034 107.275246,119.938461 
	C108.327271,119.943550 109.831589,121.712250 110.315872,122.977211 
	C111.186790,125.252098 111.443237,127.762215 111.950562,130.575897 
	C110.817017,131.539917 109.608360,131.983673 108.578056,132.688232 
	C106.243347,134.284821 97.167480,133.366211 95.781693,130.973770 
	C94.996529,129.618240 94.833405,127.606476 95.100090,126.008774 
	C95.475479,123.759857 96.849907,121.664116 97.135086,119.418800 
	C97.306862,118.066315 96.222084,116.554237 95.099976,114.848083 
	C93.993355,112.144981 93.488701,109.707672 92.984055,107.270355 
z"/>
<path fill="#D6DDDD" opacity="1.000000" stroke="none" 
	d="
M92.534760,107.209213 
	C93.488701,109.707672 93.993355,112.144981 94.746979,114.790749 
	C93.558746,116.635063 92.121529,118.270920 90.390640,119.614769 
	C90.341805,117.741859 91.315559,115.285103 90.682915,114.758598 
	C89.275261,113.587135 87.045731,112.865547 85.185249,112.930870 
	C83.411591,112.993149 81.681160,114.286499 79.931717,115.038651 
	C79.304741,114.254791 78.677757,113.470924 78.045288,112.345718 
	C79.656792,110.642990 81.273788,109.281601 82.953644,107.600868 
	C86.039497,107.237038 89.062477,107.192551 92.534760,107.209213 
z"/>
<path fill="#E7EAEC" opacity="1.000000" stroke="none" 
	d="
M79.946213,115.401993 
	C81.681160,114.286499 83.411591,112.993149 85.185249,112.930870 
	C87.045731,112.865547 89.275261,113.587135 90.682915,114.758598 
	C91.315559,115.285103 90.341805,117.741859 90.050682,119.663788 
	C88.284424,120.319580 86.564453,120.634346 84.371948,120.643295 
	C83.257729,119.902977 82.616043,119.468483 81.974350,119.033981 
	C81.303139,117.944435 80.631927,116.854889 79.946213,115.401993 
z"/>
<path fill="#D4DBDB" opacity="1.000000" stroke="none" 
	d="
M82.042557,119.341522 
	C82.616043,119.468483 83.257729,119.902977 83.975204,120.639877 
	C83.404251,120.511215 82.757507,120.080139 82.042557,119.341522 
z"/>
<path fill="#72EAF3" opacity="1.000000" stroke="none" 
	d="
M47.943573,22.015652 
	C50.762047,19.115232 53.580524,16.214815 56.689262,13.156647 
	C68.302345,11.023451 79.567520,8.126431 90.969299,7.413239 
	C97.969749,6.975355 105.261612,9.571423 112.254250,11.436420 
	C115.036743,12.178535 117.364731,14.624765 119.551041,16.643959 
	C113.937309,15.643850 108.709084,13.647560 103.344345,16.837420 
	C102.659660,17.244537 101.269943,16.992001 100.452896,16.569380 
	C91.965134,12.179040 84.020363,15.881084 75.638428,18.086502 
	C74.866959,18.047884 74.426842,18.006607 73.876236,17.835894 
	C73.521049,17.849171 73.276367,17.991886 72.816406,18.384270 
	C64.374306,25.085470 64.374306,25.085470 57.880600,17.851931 
	C57.244602,19.318193 56.658501,20.669420 55.622269,22.015331 
	C52.762615,22.011894 50.353096,22.013773 47.943573,22.015652 
z"/>
<path fill="#72E5F2" opacity="1.000000" stroke="none" 
	d="
M75.969795,18.083843 
	C84.020363,15.881084 91.965134,12.179040 100.452896,16.569380 
	C101.269943,16.992001 102.659660,17.244537 103.344345,16.837420 
	C108.709084,13.647560 113.937309,15.643850 119.609299,16.991825 
	C123.080421,18.333895 126.144684,19.676865 129.573807,21.040558 
	C130.594696,22.806150 131.250748,24.551016 131.577332,26.589624 
	C126.833946,26.253897 122.420006,25.624430 118.003082,24.997326 
	C118.000099,24.999691 118.004677,24.993961 117.951721,24.652039 
	C116.105827,23.543028 113.940598,21.747541 112.600899,22.232508 
	C110.149582,23.119881 108.186157,25.355007 105.849121,27.324877 
	C103.890686,28.771774 102.145889,29.997482 100.305214,31.056549 
	C96.225288,33.404018 92.097244,35.667847 87.988831,37.965782 
	C86.571091,38.289619 85.153343,38.613457 83.368973,38.566090 
	C82.972870,37.427109 82.943390,36.659325 83.086143,35.638058 
	C84.212608,34.626911 85.166840,33.869251 86.476746,33.069878 
	C90.244759,31.019762 93.657104,29.011354 97.437050,26.992891 
	C99.140556,25.796476 100.476471,24.610117 101.812393,23.423759 
	C100.475243,22.425335 99.176849,21.367262 97.780533,20.459883 
	C97.271530,20.129118 96.529457,20.157013 95.568893,19.864958 
	C93.838249,19.497307 92.432419,19.285978 90.751877,18.809008 
	C86.673279,19.366266 82.869400,20.189169 78.793854,20.865135 
	C77.671394,19.840082 76.820595,18.961962 75.969795,18.083843 
z"/>
<path fill="#E4EBF1" opacity="1.000000" stroke="none" 
	d="
M94.306046,65.135178 
	C95.020164,64.837639 95.734276,64.540100 96.908989,64.337662 
	C99.900017,63.289703 102.430450,62.146641 104.960884,61.003574 
	C104.960884,61.003574 104.967850,60.970921 105.298859,61.016418 
	C106.422119,61.375053 107.214371,61.688194 108.005951,62.447914 
	C107.632927,65.712738 107.398247,68.558578 106.840950,71.339775 
	C106.454102,73.270332 105.623322,75.111938 104.990875,76.993286 
	C104.106323,78.772667 103.221764,80.552048 101.914230,82.634445 
	C101.323967,82.936203 101.156693,82.934937 100.742874,82.677017 
	C98.643524,81.942307 96.790710,81.464256 94.928932,80.695999 
	C94.890732,80.214439 94.861511,80.023079 94.965866,79.452148 
	C94.834984,74.426765 94.570511,69.780975 94.306046,65.135178 
M102.982079,66.891777 
	C102.816063,67.301216 102.650055,67.710648 102.484039,68.120087 
	C102.756859,68.226280 103.029671,68.332474 103.302483,68.438667 
	C103.351700,67.906143 103.400917,67.373611 102.982079,66.891777 
z"/>
<path fill="#DDE2E2" opacity="1.000000" stroke="none" 
	d="
M105.375572,76.997238 
	C105.623322,75.111938 106.454102,73.270332 106.840950,71.339775 
	C107.398247,68.558578 107.632927,65.712738 108.270348,62.305458 
	C109.030090,60.890308 109.524765,60.064194 110.019447,59.238083 
	C110.767693,59.218338 111.515938,59.198593 112.637939,59.406464 
	C113.011688,59.634083 113.023384,59.938122 113.023384,59.938122 
	C113.304855,61.526051 113.163887,63.374340 113.950630,64.650856 
	C115.946190,67.888718 115.213425,70.317940 113.514565,73.597893 
	C111.551003,77.388931 109.243927,77.912033 105.375572,76.997238 
z"/>
<path fill="#D9EBEC" opacity="1.000000" stroke="none" 
	d="
M94.937912,80.986206 
	C96.790710,81.464256 98.643524,81.942307 100.730728,82.956619 
	C100.965775,83.679016 100.966438,83.865158 100.967110,84.051300 
	C100.967110,84.051300 100.960213,84.504005 100.956772,84.729813 
	C97.822914,85.325867 94.692490,85.696098 90.949936,86.133820 
	C90.337807,86.201294 89.980988,86.107681 89.977448,85.798813 
	C89.958595,85.285156 89.943291,85.080368 90.216858,84.733154 
	C91.983124,83.389214 93.460518,82.187706 94.937912,80.986206 
z"/>
<path fill="#D9EBEC" opacity="1.000000" stroke="none" 
	d="
M113.270721,59.935368 
	C113.023384,59.938122 113.011688,59.634083 113.005508,59.482079 
	C113.419815,59.290852 113.840294,59.251629 114.566223,59.302673 
	C114.420464,59.572826 113.969254,59.752720 113.270721,59.935368 
z"/>
<path fill="#CED3D0" opacity="1.000000" stroke="none" 
	d="
M101.185570,83.909325 
	C100.966438,83.865158 100.965775,83.679016 100.977272,83.213280 
	C101.156693,82.934937 101.323967,82.936203 101.742035,82.928314 
	C101.796562,83.201889 101.600296,83.484619 101.185570,83.909325 
z"/>
<path fill="#D6DDDD" opacity="1.000000" stroke="none" 
	d="
M67.987183,116.539246 
	C63.287384,121.474594 58.797771,126.272049 53.856159,130.547012 
	C50.012486,133.872177 45.666008,136.799042 39.923199,133.597488 
	C46.048462,133.089737 49.941517,130.046997 53.683258,124.699333 
	C57.690895,118.971649 63.973431,114.835686 69.627876,109.987976 
	C69.329330,112.039391 68.666000,114.107834 67.987183,116.539246 
z"/>
<path fill="#F7F27A" opacity="1.000000" stroke="none" 
	d="
M62.840652,92.894806 
	C64.617470,90.563286 66.394287,88.231766 68.487946,85.492134 
	C69.214127,84.871033 69.623474,84.658058 70.373840,84.410080 
	C71.163414,84.315788 71.611977,84.256493 72.349159,84.154892 
	C73.105438,83.789757 73.573097,83.466927 74.481987,83.139900 
	C77.277252,83.087387 79.631294,83.039062 82.233391,83.249512 
	C84.139458,83.839355 85.797462,84.170433 87.630692,84.543533 
	C87.805916,84.585548 88.118652,84.764618 88.072723,85.063034 
	C88.029320,85.562737 88.031837,85.764008 87.747452,85.976006 
	C87.247261,86.481071 86.732712,87.294800 86.866592,87.421074 
	C88.464333,88.928101 90.158478,90.332924 92.815918,92.612480 
	C90.164772,93.248566 88.605583,93.672089 87.025093,93.989479 
	C85.014534,94.393227 82.986702,94.710999 80.966324,95.065842 
	C80.534355,95.063232 80.102379,95.060631 79.122070,94.771683 
	C75.995049,92.479538 73.499542,92.648994 71.078728,94.771919 
	C70.622528,94.838982 70.166328,94.906044 69.106339,94.755661 
	C66.615250,93.990410 64.727951,93.442604 62.840652,92.894806 
z"/>
<path fill="#F2E36E" opacity="1.000000" stroke="none" 
	d="
M81.230957,95.324638 
	C82.986702,94.710999 85.014534,94.393227 87.025093,93.989479 
	C88.605583,93.672089 90.164772,93.248566 92.815918,92.612480 
	C90.158478,90.332924 88.464333,88.928101 86.866592,87.421074 
	C86.732712,87.294800 87.247261,86.481071 88.071014,86.011772 
	C89.114647,86.060432 89.547821,86.084061 89.980988,86.107681 
	C89.980988,86.107681 90.337807,86.201294 90.519821,86.203392 
	C92.178024,87.132698 93.654205,88.059906 95.443298,89.043175 
	C96.591301,90.693268 97.426376,92.287308 98.347443,94.192368 
	C93.110374,99.927208 87.280533,97.403191 81.230957,95.324638 
z"/>
<path fill="#F2E36E" opacity="1.000000" stroke="none" 
	d="
M62.620171,92.880394 
	C64.727951,93.442604 66.615250,93.990410 68.762375,94.791397 
	C66.369278,96.014252 63.716358,96.983925 60.696205,97.933968 
	C60.568100,96.533363 60.807224,95.152397 61.071007,93.414963 
	C61.095665,93.058502 61.548756,92.971321 61.758018,92.873077 
	C61.967278,92.774826 62.399689,92.865982 62.620171,92.880394 
z"/>
<path fill="#A3A8A3" opacity="1.000000" stroke="none" 
	d="
M108.939850,99.585999 
	C105.862228,100.570686 102.680305,101.221169 99.077477,101.888214 
	C99.181870,100.977356 99.707176,100.049934 100.554291,99.045898 
	C103.529251,99.063446 106.182404,99.157616 108.939850,99.585999 
z"/>
<path fill="#F2E36E" opacity="1.000000" stroke="none" 
	d="
M71.303345,95.097946 
	C73.499542,92.648994 75.995049,92.479538 78.798340,94.758667 
	C76.524628,95.162651 74.026291,95.293304 71.303345,95.097946 
z"/>
<path fill="#A3A8A3" opacity="1.000000" stroke="none" 
	d="
M101.780968,97.017685 
	C101.873184,97.288147 101.700760,97.521431 101.291794,97.830658 
	C101.107315,97.945107 101.061920,97.494209 101.103119,97.271889 
	C101.144310,97.049568 101.568382,97.019005 101.780968,97.017685 
z"/>
<path fill="#C0C6C5" opacity="1.000000" stroke="none" 
	d="
M122.830109,123.071602 
	C122.753105,124.534531 122.676109,125.997467 122.362801,127.732407 
	C116.378586,126.397194 114.428299,121.365486 112.327744,116.440048 
	C116.050232,118.431160 119.440170,120.751381 122.830109,123.071602 
z"/>
<path fill="#CED4D3" opacity="1.000000" stroke="none" 
	d="
M122.880310,122.669556 
	C119.440170,120.751381 116.050232,118.431160 112.314301,116.076347 
	C111.388771,115.507271 110.809258,114.972778 110.112854,114.157326 
	C111.036980,113.783073 112.297592,113.265701 113.080383,113.671043 
	C116.207222,115.290230 119.185493,117.196312 122.578827,119.020927 
	C122.936111,120.119591 122.933311,121.193542 122.880310,122.669556 
z"/>
<path fill="#E7EAEC" opacity="1.000000" stroke="none" 
	d="
M59.011215,65.393181 
	C59.771290,65.003380 60.527508,65.032158 61.833328,65.333427 
	C62.692501,65.785980 63.002071,65.966034 63.247761,66.557266 
	C63.127182,71.345985 63.070484,75.723534 62.912582,80.390823 
	C62.561481,81.441818 62.311588,82.203056 62.061691,82.964294 
	C59.056629,83.190498 57.940521,81.610825 58.002754,78.806465 
	C58.046307,76.843658 57.983490,74.878502 57.963058,72.465012 
	C58.307747,69.947678 58.657551,67.879715 59.011215,65.393181 
z"/>
<path fill="#81AAD1" opacity="1.000000" stroke="none" 
	d="
M62.429573,82.986984 
	C62.311588,82.203056 62.561481,81.441818 63.198105,80.207382 
	C64.105797,78.765266 64.626770,77.796356 65.513550,76.901337 
	C67.248337,76.678795 68.617302,76.382355 70.323044,76.137909 
	C71.100601,77.129120 71.541389,78.068329 71.750099,79.269287 
	C71.022957,81.169052 70.527893,82.807068 70.032829,84.445084 
	C69.623474,84.658058 69.214127,84.871033 68.596313,85.167671 
	C66.524391,84.504112 64.660927,83.756897 62.429573,82.986984 
z"/>
<path fill="#71D8E7" opacity="1.000000" stroke="none" 
	d="
M118.006073,24.994963 
	C122.420006,25.624430 126.833946,26.253897 131.632355,26.939640 
	C132.306595,27.138485 132.549530,27.338068 132.865601,27.799648 
	C132.990311,28.445681 132.995026,28.886723 133.001221,29.658386 
	C127.991211,29.989969 122.979706,29.990929 117.558258,29.990929 
	C117.103111,29.548038 117.057907,29.106110 117.244965,28.105034 
	C117.653519,26.695581 117.829796,25.845272 118.006073,24.994963 
z"/>
<path fill="#7F8179" opacity="1.000000" stroke="none" 
	d="
M89.567551,104.988922 
	C87.568665,105.191711 85.126938,105.387505 82.395721,105.356293 
	C84.445732,105.080170 86.785225,105.031052 89.567551,104.988922 
z"/>
<path fill="#7F8179" opacity="1.000000" stroke="none" 
	d="
M93.038345,104.738327 
	C92.280869,104.977211 91.517166,105.003418 90.371834,105.017838 
	C90.775551,104.691139 91.560890,104.376221 92.680023,104.080894 
	C93.013802,104.100487 93.032112,104.525642 93.038345,104.738327 
z"/>
<path fill="#65CBD9" opacity="1.000000" stroke="none" 
	d="
M72.998573,41.956379 
	C69.375610,44.984867 65.573830,43.911274 61.414108,43.076733 
	C55.326572,41.855423 49.048481,41.583931 42.496429,40.992607 
	C42.373955,39.876671 42.606644,38.675785 42.804970,37.099380 
	C42.846588,36.051086 42.922577,35.378307 43.483795,34.359924 
	C48.434303,34.847290 52.893101,35.717880 57.369003,36.489174 
	C58.630188,36.706497 60.143764,37.086571 61.196430,36.617477 
	C67.184219,33.949192 72.145752,29.036568 79.426796,28.574211 
	C80.162186,28.776201 80.580490,28.896358 80.981911,29.393936 
	C80.201561,32.460045 75.417694,32.951210 76.679390,36.968430 
	C73.064667,37.213314 71.649979,38.661953 72.998573,41.956379 
z"/>
<path fill="#6FD3E1" opacity="1.000000" stroke="none" 
	d="
M79.109718,28.492378 
	C72.145752,29.036568 67.184219,33.949192 61.196430,36.617477 
	C60.143764,37.086571 58.630188,36.706497 57.369003,36.489174 
	C52.893101,35.717880 48.434303,34.847290 43.528679,34.021545 
	C43.069351,33.582420 43.050373,33.136063 43.435921,32.348053 
	C48.718021,30.843121 53.035507,27.225067 58.902664,28.710354 
	C62.350163,28.384491 66.289871,29.072613 68.271767,27.417036 
	C72.777344,23.653309 75.828926,24.836067 79.109718,28.492378 
z"/>
<path fill="#72DDEC" opacity="1.000000" stroke="none" 
	d="
M58.505959,28.660223 
	C53.035507,27.225067 48.718021,30.843121 43.462650,32.013824 
	C44.561394,28.855669 46.037933,25.690086 47.729023,22.270079 
	C50.353096,22.013773 52.762615,22.011894 55.633896,22.401522 
	C56.899090,24.748758 57.702526,26.704491 58.505959,28.660223 
z"/>
<path fill="#DFECF0" opacity="1.000000" stroke="none" 
	d="
M71.982178,79.007538 
	C71.541389,78.068329 71.100601,77.129120 70.481285,75.788956 
	C69.858101,72.955208 74.081223,69.977112 69.320015,67.826523 
	C69.196388,67.618874 69.161240,67.136810 69.161240,67.136810 
	C74.105499,66.782608 79.049751,66.428406 84.429352,66.483734 
	C84.516823,69.251793 84.168961,71.610336 83.417946,73.978813 
	C79.337257,75.661682 75.659721,77.334610 71.982178,79.007538 
z"/>
<path fill="#3D668F" opacity="1.000000" stroke="none" 
	d="
M83.821091,73.968872 
	C84.168961,71.610336 84.516823,69.251793 84.854591,66.500000 
	C87.701782,65.759102 90.559074,65.411476 93.861206,65.099510 
	C94.570511,69.780975 94.834984,74.426765 94.657349,79.427338 
	C92.833107,78.914909 91.450966,78.047699 90.371353,76.953705 
	C90.580444,73.975487 90.487022,71.224052 90.393600,68.472618 
	C89.495338,68.690277 87.804230,68.975151 87.816139,69.115669 
	C88.043884,71.802414 88.471893,74.472183 88.643890,77.388573 
	C87.249680,78.189461 86.070007,78.747246 84.602615,79.021637 
	C84.150299,77.148460 83.985695,75.558670 83.821091,73.968872 
z"/>
<path fill="#607A9B" opacity="1.000000" stroke="none" 
	d="
M68.780663,67.098984 
	C69.161240,67.136810 69.196388,67.618874 68.946793,67.950012 
	C63.788643,70.229797 63.106186,71.872993 65.147736,76.827446 
	C64.626770,77.796356 64.105797,78.765266 63.299309,79.917625 
	C63.070484,75.723534 63.127182,71.345985 63.409370,66.525322 
	C63.634861,66.082199 63.955338,66.002098 63.955338,66.002098 
	C65.436920,66.355110 66.918503,66.708130 68.780663,67.098984 
z"/>
<path fill="#D9EBEC" opacity="1.000000" stroke="none" 
	d="
M104.592972,61.064873 
	C102.430450,62.146641 99.900017,63.289703 97.181808,64.226791 
	C99.404373,63.055935 101.814713,62.091057 104.592972,61.064873 
z"/>
<path fill="#D9EBEC" opacity="1.000000" stroke="none" 
	d="
M109.656128,59.153011 
	C109.524765,60.064194 109.030090,60.890308 108.271027,61.858879 
	C107.214371,61.688194 106.422119,61.375053 105.314270,61.010010 
	C106.430054,60.328056 107.861435,59.697998 109.656128,59.153011 
z"/>
<path fill="#D8E1E3" opacity="1.000000" stroke="none" 
	d="
M63.818607,65.742882 
	C63.955338,66.002098 63.634861,66.082199 63.473251,66.114143 
	C63.002071,65.966034 62.692501,65.785980 62.205776,65.403336 
	C62.579708,65.295052 63.130791,65.389359 63.818607,65.742882 
z"/>
<path fill="#5DCBDA" opacity="1.000000" stroke="none" 
	d="
M118.003082,24.997326 
	C117.829796,25.845272 117.653519,26.695581 117.237320,27.771687 
	C112.517715,29.741104 107.581673,30.799992 103.675140,33.403599 
	C98.910797,36.578922 93.674011,37.199009 88.234985,38.213943 
	C92.097244,35.667847 96.225288,33.404018 100.305214,31.056549 
	C102.145889,29.997482 103.890686,28.771774 106.220581,27.307636 
	C110.509674,26.327055 114.257179,25.660509 118.004677,24.993961 
	C118.004677,24.993961 118.000099,24.999691 118.003082,24.997326 
z"/>
<path fill="#69D8E7" opacity="1.000000" stroke="none" 
	d="
M73.394196,41.949669 
	C71.649979,38.661953 73.064667,37.213314 77.054298,36.966484 
	C79.500183,36.591820 81.207054,36.241684 82.913918,35.891544 
	C82.943390,36.659325 82.972870,37.427109 83.003113,38.578068 
	C79.932533,39.955151 76.861183,40.949059 73.394196,41.949669 
z"/>
<path fill="#E1F9FB" opacity="1.000000" stroke="none" 
	d="
M58.902664,28.710354 
	C57.702526,26.704491 56.899090,24.748758 56.084026,22.406837 
	C56.658501,20.669420 57.244602,19.318193 57.880600,17.851931 
	C64.374306,25.085470 64.374306,25.085470 73.057755,18.356546 
	C73.514381,18.079151 73.986732,17.965332 73.986732,17.965332 
	C74.426842,18.006607 74.866959,18.047884 75.638428,18.086502 
	C76.820595,18.961962 77.671394,19.840082 78.961983,21.183228 
	C84.188911,24.910700 87.364403,20.893469 91.026596,19.074652 
	C92.432419,19.285978 93.838249,19.497307 95.532898,20.209641 
	C94.230904,22.823341 92.640099,24.936037 90.693848,27.089828 
	C88.556450,27.790615 86.774490,28.450304 84.595390,29.060017 
	C83.131767,29.012197 82.065285,29.014357 80.998802,29.016516 
	C80.580490,28.896358 80.162186,28.776201 79.426796,28.574211 
	C75.828926,24.836067 72.777344,23.653309 68.271767,27.417036 
	C66.289871,29.072613 62.350163,28.384491 58.902664,28.710354 
z"/>
<path fill="#72E5F2" opacity="1.000000" stroke="none" 
	d="
M73.876236,17.835894 
	C73.986732,17.965332 73.514381,18.079151 73.273033,18.106876 
	C73.276367,17.991886 73.521049,17.849171 73.876236,17.835894 
z"/>
<path fill="#71D8E7" opacity="1.000000" stroke="none" 
	d="
M91.049294,27.048735 
	C92.640099,24.936037 94.230904,22.823341 95.857712,20.365963 
	C96.529457,20.157013 97.271530,20.129118 97.780533,20.459883 
	C99.176849,21.367262 100.475243,22.425335 101.812393,23.423759 
	C100.476471,24.610117 99.140556,25.796476 97.063461,26.990990 
	C94.564621,27.015675 92.806961,27.032206 91.049294,27.048735 
z"/>
<path fill="#56BDCC" opacity="1.000000" stroke="none" 
	d="
M80.981911,29.393936 
	C82.065285,29.014357 83.131767,29.012197 84.644211,29.399805 
	C85.433815,30.896908 85.777451,32.004246 86.121078,33.111588 
	C85.166840,33.869251 84.212608,34.626911 83.086143,35.638058 
	C81.207054,36.241684 79.500183,36.591820 77.418411,36.943901 
	C75.417694,32.951210 80.201561,32.460045 80.981911,29.393936 
z"/>
<path fill="#65CBD9" opacity="1.000000" stroke="none" 
	d="
M86.476746,33.069878 
	C85.777451,32.004246 85.433815,30.896908 85.041351,29.449781 
	C86.774490,28.450304 88.556450,27.790615 90.693848,27.089832 
	C92.806961,27.032206 94.564621,27.015675 96.695877,27.001047 
	C93.657104,29.011354 90.244759,31.019762 86.476746,33.069878 
z"/>
<path fill="#8EEFF7" opacity="1.000000" stroke="none" 
	d="
M90.751877,18.809008 
	C87.364403,20.893469 84.188911,24.910700 79.233643,21.330162 
	C82.869400,20.189169 86.673279,19.366266 90.751877,18.809008 
z"/>
<path fill="#71D8E7" opacity="1.000000" stroke="none" 
	d="
M117.951721,24.652039 
	C114.257179,25.660509 110.509674,26.327055 106.390717,27.010843 
	C108.186157,25.355007 110.149582,23.119881 112.600899,22.232508 
	C113.940598,21.747541 116.105827,23.543028 117.951721,24.652039 
z"/>
<path fill="#6CA2D0" opacity="1.000000" stroke="none" 
	d="
M90.068832,77.180489 
	C91.450966,78.047699 92.833107,78.914909 94.523766,79.806923 
	C94.861511,80.023079 94.890732,80.214439 94.928940,80.695999 
	C93.460518,82.187706 91.983124,83.389214 89.918152,84.685638 
	C88.926590,84.775246 88.522621,84.769928 88.118652,84.764618 
	C88.118652,84.764618 87.805916,84.585548 87.497330,84.266510 
	C86.459702,82.948174 85.730659,81.948868 84.973709,80.675346 
	C84.927307,80.035759 84.908821,79.670395 84.890335,79.305023 
	C86.070007,78.747246 87.249680,78.189461 88.948189,77.351387 
	C89.667625,77.107559 89.868233,77.144028 90.068832,77.180489 
z"/>
<path fill="#D9EBEC" opacity="1.000000" stroke="none" 
	d="
M103.216110,66.866432 
	C103.400917,67.373611 103.351700,67.906143 103.302490,68.438667 
	C103.029671,68.332474 102.756859,68.226280 102.484039,68.120087 
	C102.650055,67.710648 102.816063,67.301216 103.216110,66.866432 
z"/>
<path fill="#CED3D0" opacity="1.000000" stroke="none" 
	d="
M88.072723,85.063034 
	C88.522621,84.769928 88.926590,84.775246 89.629272,84.828072 
	C89.943291,85.080368 89.958595,85.285156 89.977448,85.798813 
	C89.547821,86.084061 89.114647,86.060432 88.357918,86.001038 
	C88.031837,85.764008 88.029320,85.562737 88.072723,85.063034 
z"/>
<path fill="#D5DFE3" opacity="1.000000" stroke="none" 
	d="
M84.602615,79.021637 
	C84.908821,79.670395 84.927307,80.035759 84.775665,80.915070 
	C83.732140,81.949585 82.858742,82.470161 81.985336,82.990738 
	C79.631294,83.039062 77.277252,83.087387 74.299454,82.916924 
	C73.137314,83.197830 72.598930,83.697510 72.060547,84.197197 
	C71.611977,84.256493 71.163414,84.315788 70.373840,84.410080 
	C70.527893,82.807068 71.022957,81.169052 71.750099,79.269287 
	C75.659721,77.334610 79.337257,75.661682 83.417946,73.978813 
	C83.985695,75.558670 84.150299,77.148460 84.602615,79.021637 
z"/>
<path fill="#CED3D0" opacity="1.000000" stroke="none" 
	d="
M82.233391,83.249512 
	C82.858742,82.470161 83.732140,81.949585 84.803581,81.189285 
	C85.730659,81.948868 86.459702,82.948174 87.322113,84.224495 
	C85.797462,84.170433 84.139458,83.839355 82.233391,83.249512 
z"/>
<path fill="#CDD2CC" opacity="1.000000" stroke="none" 
	d="
M72.349159,84.154892 
	C72.598930,83.697510 73.137314,83.197830 73.858231,82.921120 
	C73.573097,83.466927 73.105438,83.789757 72.349159,84.154892 
z"/>
<path fill="#D4DEE9" opacity="1.000000" stroke="none" 
	d="
M65.513550,76.901337 
	C63.106186,71.872993 63.788643,70.229797 69.070419,68.157661 
	C74.081223,69.977112 69.858101,72.955208 70.144516,75.736954 
	C68.617302,76.382355 67.248337,76.678795 65.513550,76.901337 
z"/>
<path fill="#E0F1F7" opacity="1.000000" stroke="none" 
	d="
M90.371353,76.953705 
	C89.868233,77.144028 89.667625,77.107559 89.162735,77.108284 
	C88.471893,74.472183 88.043884,71.802414 87.816139,69.115669 
	C87.804230,68.975151 89.495338,68.690277 90.393600,68.472618 
	C90.487022,71.224052 90.580444,73.975487 90.371353,76.953705 
z"/>
</svg>